<svg class="flow" viewBox="0 0 1000 2180" xmlns="http://www.w3.org/2000/svg" aria-label="Fluxograma HEMOPI"><defs><marker id="ab" markerWidth="9" markerHeight="9" refX="7" refY="4.5" orient="auto"><path d="M0,0 L9,4.5 L0,9 Z" fill="#1a5f8a"/></marker><marker id="ay" markerWidth="9" markerHeight="9" refX="7" refY="4.5" orient="auto"><path d="M0,0 L9,4.5 L0,9 Z" fill="#c9a227"/></marker><marker id="ap" markerWidth="9" markerHeight="9" refX="7" refY="4.5" orient="auto"><path d="M0,0 L9,4.5 L0,9 Z" fill="#5b4b8a"/></marker><marker id="ar" markerWidth="9" markerHeight="9" refX="7" refY="4.5" orient="auto"><path d="M0,0 L9,4.5 L0,9 Z" fill="#c41e3a"/></marker><marker id="ag" markerWidth="9" markerHeight="9" refX="7" refY="4.5" orient="auto"><path d="M0,0 L9,4.5 L0,9 Z" fill="#1b7a4e"/></marker><filter id="sh"><feDropShadow dx="0" dy="1" stdDeviation="1.2" flood-opacity=".12"/></filter></defs>
<!-- TOP simplified pointer: full map continues from previous structure; MIDDLE improved section is the focus -->
<text x="500" y="20" text-anchor="middle" font-size="11" font-weight="700" fill="#0b3d5c">… canais digital/físico e QR (acima) convergem aqui …</text>
<g class="node-hit" data-id="chegada" filter="url(#sh)"><rect x="370" y="40" width="260" height="40" rx="8" fill="#efeaf8" stroke="#5b4b8a" stroke-width="2.2"/><text x="500" y="56" text-anchor="middle" font-size="11" font-weight="700" fill="#5b4b8a">📍 Chegada ao HEMOCENTRO</text><text x="500" y="70" text-anchor="middle" font-size="8" fill="#5b4b8a">Totem / Recepção · espera</text></g>
<line x1="500" y1="80" x2="500" y2="100" stroke="#5b4b8a" stroke-width="2.2" marker-end="url(#ap)"/>
<g class="node-hit" data-id="tipoChegada" filter="url(#sh)"><polygon points="500,104 590,142 500,180 410,142" fill="#fdf6e3" stroke="#c9a227" stroke-width="2.2"/><text x="500" y="136" text-anchor="middle" font-size="10" font-weight="700" fill="#8a7018">Como chegou?</text><text x="500" y="150" text-anchor="middle" font-size="9" font-weight="700" fill="#8a7018">Agendado?</text></g>
<text x="400" y="134" text-anchor="end" font-size="9" font-weight="700" fill="#1b7a4e">SIM</text>
<path d="M410,142 H320 V210" fill="none" stroke="#1b7a4e" stroke-width="2" marker-end="url(#ag)"/>
<g class="node-hit" data-id="checkin" filter="url(#sh)"><rect x="220" y="210" width="200" height="40" rx="7" fill="#e6f5ed" stroke="#1b7a4e" stroke-width="1.8"/><text x="320" y="228" text-anchor="middle" font-size="10" font-weight="700" fill="#1b7a4e">Check-in do agendamento</text><text x="320" y="241" text-anchor="middle" font-size="8" fill="#1b7a4e">valida dia · unidade · QR</text></g>
<text x="600" y="134" font-size="9" font-weight="700" fill="#c9a227">NÃO</text>
<path d="M590,142 H680 V210" fill="none" stroke="#c9a227" stroke-width="2" marker-end="url(#ay)"/>
<g class="node-hit" data-id="espont" filter="url(#sh)"><rect x="580" y="210" width="200" height="40" rx="7" fill="#fdf6e3" stroke="#c9a227" stroke-width="1.8"/><text x="680" y="228" text-anchor="middle" font-size="10" font-weight="700" fill="#8a7018">Demanda espontânea</text><text x="680" y="241" text-anchor="middle" font-size="8" fill="#a08a20">sem horário prévio</text></g>
<path d="M320,250 V280 H500" fill="none" stroke="#5b4b8a" stroke-width="2"/>
<path d="M680,250 V280 H500" fill="none" stroke="#5b4b8a" stroke-width="2"/>
<line x1="500" y1="280" x2="500" y2="298" stroke="#5b4b8a" stroke-width="2.2" marker-end="url(#ap)"/>
<g class="node-hit" data-id="senha" filter="url(#sh)"><rect x="350" y="298" width="300" height="44" rx="8" fill="#efeaf8" stroke="#5b4b8a" stroke-width="2.2"/><text x="500" y="316" text-anchor="middle" font-size="12" font-weight="700" fill="#5b4b8a">🎫 Emissão de SENHA</text><text x="500" y="330" text-anchor="middle" font-size="8" fill="#5b4b8a">ato de presença · não nasce no app</text></g>
<line x1="500" y1="342" x2="500" y2="360" stroke="#5b4b8a" stroke-width="2.2" marker-end="url(#ap)"/>
<g class="node-hit" data-id="prio" filter="url(#sh)"><polygon points="500,364 580,398 500,432 420,398" fill="#fdf6e3" stroke="#c9a227" stroke-width="2.2"/><text x="500" y="392" text-anchor="middle" font-size="10" font-weight="700" fill="#8a7018">Prioridade legal?</text><text x="500" y="406" text-anchor="middle" font-size="8" font-weight="700" fill="#8a7018">Lei 10.048</text></g>
<text x="410" y="392" text-anchor="end" font-size="9" font-weight="700" fill="#1b7a4e">SIM</text>
<path d="M420,398 H340 V460" fill="none" stroke="#1b7a4e" stroke-width="2" marker-end="url(#ag)"/>
<g class="node-hit" data-id="senhaPrio" filter="url(#sh)"><rect x="240" y="460" width="200" height="32" rx="7" fill="#e6f5ed" stroke="#1b7a4e" stroke-width="1.8"/><text x="340" y="480" text-anchor="middle" font-size="10" font-weight="700" fill="#1b7a4e">Senha prioritária</text></g>
<text x="590" y="392" font-size="9" font-weight="700" fill="#5b4b8a">NÃO</text>
<path d="M580,398 H660 V460" fill="none" stroke="#5b4b8a" stroke-width="2" marker-end="url(#ap)"/>
<g class="node-hit" data-id="senhaNorm" filter="url(#sh)"><rect x="560" y="460" width="200" height="32" rx="7" fill="#efeaf8" stroke="#5b4b8a" stroke-width="1.8"/><text x="660" y="480" text-anchor="middle" font-size="10" font-weight="700" fill="#5b4b8a">Senha normal</text></g>
<path d="M340,492 V515 H500" fill="none" stroke="#5b4b8a" stroke-width="2"/>
<path d="M660,492 V515 H500" fill="none" stroke="#5b4b8a" stroke-width="2"/>
<line x1="500" y1="515" x2="500" y2="532" stroke="#5b4b8a" stroke-width="2.2" marker-end="url(#ap)"/>
<g class="node-hit" data-id="guicheDoc" filter="url(#sh)"><rect x="360" y="532" width="280" height="32" rx="7" fill="#efeaf8" stroke="#5b4b8a" stroke-width="1.8"/><text x="500" y="552" text-anchor="middle" font-size="11" font-weight="700" fill="#5b4b8a">Guichê · documento com foto</text></g>
<line x1="500" y1="564" x2="500" y2="580" stroke="#c41e3a" stroke-width="2" marker-end="url(#ar)"/>
<g class="node-hit" data-id="idade" filter="url(#sh)"><polygon points="500,584 590,622 500,660 410,622" fill="#fce4e8" stroke="#c41e3a" stroke-width="2.2"/><text x="500" y="616" text-anchor="middle" font-size="10" font-weight="700" fill="#8b1528">Idade na faixa</text><text x="500" y="630" text-anchor="middle" font-size="9" font-weight="700" fill="#8b1528">de doação?</text></g>
<path d="M410,622 H280 V700" fill="none" stroke="#c41e3a" stroke-width="2" marker-end="url(#ar)"/>
<text x="340" y="614" text-anchor="middle" font-size="8" font-weight="700" fill="#c41e3a">especial</text>
<g class="node-hit" data-id="idadeEsp" filter="url(#sh)"><rect x="160" y="700" width="240" height="48" rx="7" fill="#fce4e8" stroke="#c41e3a" stroke-width="1.8"/><text x="280" y="718" text-anchor="middle" font-size="9" font-weight="700" fill="#8b1528">16–17: termo + responsável</text><text x="280" y="732" text-anchor="middle" font-size="9" font-weight="700" fill="#8b1528">60–69: não 1ª doação (RDC 34)</text></g>
<text x="600" y="614" font-size="9" font-weight="700" fill="#1b7a4e">SIM</text>
<path d="M590,622 H700 V760 H500" fill="none" stroke="#1b7a4e" stroke-width="2"/>
<path d="M280,748 V780 H500" fill="none" stroke="#5b4b8a" stroke-width="1.8"/>
<line x1="500" y1="780" x2="500" y2="798" stroke="#5b4b8a" stroke-width="2" marker-end="url(#ap)"/>
<g class="node-hit" data-id="foto" filter="url(#sh)"><rect x="360" y="798" width="280" height="32" rx="7" fill="#efeaf8" stroke="#5b4b8a" stroke-width="1.8"/><text x="500" y="818" text-anchor="middle" font-size="11" font-weight="700" fill="#5b4b8a">Foto · LGPD · REDOME</text></g>
<line x1="500" y1="830" x2="500" y2="848" stroke="#5b4b8a" stroke-width="2.2" marker-end="url(#ap)"/>
<g class="node-hit" data-id="rota" filter="url(#sh)"><polygon points="500,852 600,896 500,940 400,896" fill="#fdf6e3" stroke="#c9a227" stroke-width="2.3"/><text x="500" y="888" text-anchor="middle" font-size="11" font-weight="700" fill="#8a7018">Qual a rota</text><text x="500" y="904" text-anchor="middle" font-size="11" font-weight="700" fill="#8a7018">desta visita?</text></g>
<path d="M400,896 H200 V980" fill="none" stroke="#c41e3a" stroke-width="2.2" marker-end="url(#ar)"/>
<text x="280" y="886" text-anchor="middle" font-size="9" font-weight="700" fill="#c41e3a">2ª amostra</text>
<g class="node-hit" data-id="seg" filter="url(#sh)"><rect x="100" y="980" width="200" height="48" rx="7" fill="#fce4e8" stroke="#c41e3a" stroke-width="1.8"/><text x="200" y="1000" text-anchor="middle" font-size="10" font-weight="700" fill="#8b1528">Serviço social / médico</text><text x="200" y="1014" text-anchor="middle" font-size="8" fill="#c41e3a">coleta protegida · alta admin</text></g>
<path d="M600,896 H800 V980" fill="none" stroke="#5c6b7a" stroke-width="2" marker-end="url(#ap)"/>
<text x="720" y="886" text-anchor="middle" font-size="9" font-weight="700" fill="#5c6b7a">Paciente</text>
<g class="node-hit" data-id="pac" filter="url(#sh)"><rect x="700" y="980" width="200" height="40" rx="7" fill="#f0f3f7" stroke="#5c6b7a" stroke-width="1.8"/><text x="800" y="1004" text-anchor="middle" font-size="10" font-weight="700" fill="#5c6b7a">Ambulatório / laudos</text></g>
<text x="500" y="958" text-anchor="middle" font-size="10" font-weight="700" fill="#1b7a4e">Doador sangue / REDOME</text>
<line x1="500" y1="940" x2="500" y2="1045" stroke="#1b7a4e" stroke-width="2.3" marker-end="url(#ag)"/>
<g class="node-hit" data-id="pre" filter="url(#sh)"><rect x="360" y="1045" width="280" height="40" rx="8" fill="#e6f5ed" stroke="#1b7a4e" stroke-width="2"/><text x="500" y="1063" text-anchor="middle" font-size="11" font-weight="700" fill="#1b7a4e">Pré-triagem hematológica</text><text x="500" y="1076" text-anchor="middle" font-size="8" fill="#1b7a4e">PA · peso ≥50kg · Hb/Ht · RDC 34</text></g>
<line x1="500" y1="1085" x2="500" y2="1105" stroke="#c41e3a" stroke-width="2.3" marker-end="url(#ar)"/>
<g class="node-hit" data-id="preApto" filter="url(#sh)"><polygon points="500,1109 595,1155 500,1201 405,1155" fill="#fce4e8" stroke="#c41e3a" stroke-width="2.4"/><text x="500" y="1145" text-anchor="middle" font-size="11" font-weight="700" fill="#8b1528">Apto na</text><text x="500" y="1161" text-anchor="middle" font-size="11" font-weight="700" fill="#8b1528">pré-triagem?</text></g>
<path d="M405,1155 H280 V1245" fill="none" stroke="#c41e3a" stroke-width="2.2" marker-end="url(#ar)"/>
<text x="330" y="1147" text-anchor="middle" font-size="10" font-weight="700" fill="#c41e3a">NÃO</text>
<g class="node-hit" data-id="preInapto" filter="url(#sh)"><rect x="160" y="1245" width="240" height="44" rx="7" fill="#fce4e8" stroke="#c41e3a" stroke-width="2"/><text x="280" y="1263" text-anchor="middle" font-size="11" font-weight="700" fill="#8b1528">Inapto na pré-triagem</text><text x="280" y="1277" text-anchor="middle" font-size="8" fill="#c41e3a">peso · PA · Hb · orienta retorno</text></g>
<text x="620" y="1147" font-size="10" font-weight="700" fill="#1b7a4e">SIM</text>
<path d="M595,1155 H700 V1245" fill="none" stroke="#1b7a4e" stroke-width="2.2" marker-end="url(#ag)"/>
<g class="node-hit" data-id="tri" filter="url(#sh)"><rect x="560" y="1245" width="280" height="36" rx="8" fill="#e6f5ed" stroke="#1b7a4e" stroke-width="2"/><text x="700" y="1267" text-anchor="middle" font-size="11" font-weight="700" fill="#1b7a4e">Triagem clínica (sigilo · TCLE)</text></g>
<line x1="700" y1="1281" x2="700" y2="1300" stroke="#c41e3a" stroke-width="2.2" marker-end="url(#ar)"/>
<g class="node-hit" data-id="apto" filter="url(#sh)"><polygon points="700,1304 780,1340 700,1376 620,1340" fill="#fce4e8" stroke="#c41e3a" stroke-width="2.2"/><text x="700" y="1336" text-anchor="middle" font-size="10" font-weight="700" fill="#8b1528">Pode doar hoje?</text></g>
<path d="M620,1340 H520 V1410" fill="none" stroke="#c41e3a" stroke-width="2" marker-end="url(#ar)"/>
<text x="560" y="1332" text-anchor="middle" font-size="9" font-weight="700" fill="#c41e3a">NÃO</text>
<g class="node-hit" data-id="inapto" filter="url(#sh)"><rect x="420" y="1410" width="200" height="36" rx="7" fill="#fce4e8" stroke="#c41e3a" stroke-width="1.8"/><text x="520" y="1432" text-anchor="middle" font-size="10" font-weight="700" fill="#8b1528">Inapto na triagem</text></g>
<text x="800" y="1332" font-size="9" font-weight="700" fill="#1b7a4e">SIM</text>
<path d="M780,1340 H880 V1410 H500" fill="none" stroke="#1b7a4e" stroke-width="2"/>
<line x1="500" y1="1410" x2="500" y2="1430" stroke="#1b7a4e" stroke-width="2" marker-end="url(#ag)"/>
<g class="node-hit" data-id="prep" filter="url(#sh)"><rect x="370" y="1430" width="260" height="28" rx="6" fill="#e8f4fc" stroke="#1a5f8a" stroke-width="1.8"/><text x="500" y="1448" text-anchor="middle" font-size="10" font-weight="700" fill="#0b3d5c">Preparação · kit · etiquetas → coleta → lanche ≥15 min → alta</text></g>
<g class="node-hit" data-id="fim" filter="url(#sh)"><ellipse cx="500" cy="1490" rx="80" ry="18" fill="#e6f5ed" stroke="#1b7a4e" stroke-width="2"/><text x="500" y="1494" text-anchor="middle" font-size="11" font-weight="700" fill="#1b7a4e">🏁 Continua coleta / alta</text></g>
</svg>
